# xmcd
#
# Track frame offsets: 
#        150
#        15790
#        35120
#        51162
#        67792
#        80785
#        99780
#        111962
#        128760
#        142667
#        156075
#        169832
#
# Disc length: 2460 seconds
#
# Revision: 3
# Processed by: cddbd v1.5.2PL0 Copyright (c) Steve Scherf et al.
# Submitted via: ExactAudioCopy v0.95b4
#
DISCID=8d099a0c
DTITLE=Carole King - Wrap Around Joy
DYEAR=1992
DGENRE=Folk
TTITLE0=Nightingale
TTITLE1=Change in Mind, Change of Heart
TTITLE2=Jazzman
TTITLE3=You Go Your Way, I'll Go Mine
TTITLE4=You're Something New
TTITLE5=We Are All In This Together
TTITLE6=Wrap Around Joy
TTITLE7=You Gentle Me
TTITLE8=My Lovin' Eyes
TTITLE9=Sweet Adonis
TTITLE10=A Night This Side of Dying
TTITLE11=The Best Yet Is To Come
EXTD=
EXTT0=
EXTT1=
EXTT2=
EXTT3=
EXTT4=
EXTT5=
EXTT6=
EXTT7=
EXTT8=
EXTT9=
EXTT10=
EXTT11=
PLAYORDER=
